<svg xmlns="http://www.w3.org/2000/svg" viewBox="20 20 60 60" fill="currentColor"><path d="M21.94,40.2,49.22,51.84a2,2,0,0,0,1.57,0L78.06,40.2a2,2,0,0,0,0-3.68L50.78,24.89a2,2,0,0,0-1.57,0L21.94,36.52a2,2,0,0,0,0,3.68Z"/><path d="M76.49,59.8,50,71.1,23.51,59.8a2,2,0,0,0-1.57,3.68L49.22,75.11a2,2,0,0,0,1.57,0L78.06,63.48a2,2,0,0,0-1.57-3.68Z"/><path d="M76.49,48.16,50,59.46,23.51,48.16a2,2,0,0,0-1.57,3.68L49.22,63.48a2,2,0,0,0,1.57,0L78.06,51.84a2,2,0,0,0-1.57-3.68Z"/><!-- Created by Prithvi from the Noun Project --></svg>
