<svg xmlns="http://www.w3.org/2000/svg" viewBox="0 0 32 32" fill="currentColor"><path d="M26.629,3.472c1.493,1.397,2.433,3.378,2.433,5.58c0,0.691-0.093,1.379-0.276,2.045c-0.076,0.273-0.166,0.541-0.271,0.8   l-0.201,0.458l-6.902,12.759l-7.11-13.235c-0.106-0.267-0.191-0.521-0.263-0.783c-0.184-0.663-0.277-1.351-0.277-2.044   c0-2.167,0.909-4.122,2.362-5.515l-4.956-3.195V5.05h-1V0.239L0,5.419V32l10.168-6.339V20.51h1v5.153l9.744,6.074v-4.897h1v4.812   L32,25.597V0L26.629,3.472z M11.168,17.732h-1v-3.564h1V17.732z M11.168,11.391h-1V7.827h1V11.391z"/><circle cx="21.412" cy="8.987" r="2.664"/><path d="M21.412,2.401c-3.667,0-6.65,2.983-6.65,6.65c0,0.603,0.081,1.202,0.241,1.778c0.062,0.227,0.137,0.449,0.222,0.665   l0.209,0.475l5.979,11.043l6.182-11.504c0.085-0.21,0.163-0.442,0.228-0.678c0.16-0.579,0.241-1.177,0.241-1.779   C28.062,5.385,25.079,2.401,21.412,2.401z M21.412,12.651c-2.021,0-3.664-1.644-3.664-3.664s1.644-3.664,3.664-3.664   s3.664,1.644,3.664,3.664S23.433,12.651,21.412,12.651z"/><!-- Created by Icons By Alfredo from the Noun Project --></svg>
