<svg viewBox="170 100 360 360" xmlns="http://www.w3.org/2000/svg"><g fill="currentColor"><path d="M518.6 269h-18.5a150.8 150.8 0 0 0-138-137.9v-20.9c0-5.8-4.7-10.6-10.5-10.6h-3.2c-5.8 0-10.6 4.8-10.6 10.6v21A150.8 150.8 0 0 0 200 269h-18.5c-5.9 0-10.6 4.7-10.6 10.6v3.2c0 5.8 4.7 10.5 10.6 10.5h18.5c6 73.4 64.6 132 138 138v18.5c0 5.8 4.7 10.6 10.5 10.6h3.2c5.8 0 10.6-4.8 10.6-10.6v-18.6c73.3-5.9 132-64.5 137.9-137.9h18.5c5.9 0 10.6-4.7 10.6-10.5v-3.2c0-5.9-4.7-10.6-10.6-10.6zM362.2 414.4v-9.8c0-5.9-4.8-10.6-10.6-10.6h-3.2c-5.8 0-10.6 4.7-10.6 10.6v9.8a134 134 0 0 1-121-121h9.8c5.9 0 10.6-4.8 10.6-10.6v-3.2c0-5.9-4.7-10.6-10.6-10.6h-9.8a134 134 0 0 1 121-121v7.5c0 5.8 4.8 10.5 10.6 10.5h3.2c5.8 0 10.6-4.7 10.6-10.5V148a134 134 0 0 1 121 121h-9.8c-5.9 0-10.6 4.7-10.6 10.6v3.2c0 5.8 4.7 10.5 10.6 10.5h9.8a134 134 0 0 1-121 121z"/><path d="M355.4 222a6 6 0 0 0-10.7 0L291 320a8.3 8.3 0 0 0 9.7 12l39.2-11.7c6.6-2 13.6-2 20.2 0l39.2 11.7a8.3 8.3 0 0 0 9.7-12z"/></g><!-- Created by muhammad benani from Noun Project --></svg>
