<svg viewBox="114 45 472 472" xmlns="http://www.w3.org/2000/svg"><g fill="currentColor"><path d="M383.6 196a67.3 67.3 0 1 0-134.5.1 67.3 67.3 0 0 0 134.5-.1zm-100.8 0a33.6 33.6 0 1 1 67.3 0 33.6 33.6 0 0 1-67.3 0z"/><path d="M584 340.8a16.8 16.8 0 0 0-15.6-10.4H403.8c25.2-40.2 47-88 47-133.4A135 135 0 0 0 316.4 61.6 135 135 0 0 0 182 197c0 55.8 33 115.3 64.7 159.8L120.4 469a16.8 16.8 0 0 0 11.2 29.4H434c4.5 0 8.7-1.8 11.9-5l134.4-134.3c4.8-4.8 6.2-12 3.6-18.3zM215.5 197c0-56.1 45.2-101.8 100.8-101.8 55.6 0 100.8 45.6 100.8 101.8 0 65-57.1 144.2-100.8 192.8C273 341.7 215.6 262.3 215.6 197zM427 464.8H175.8l91.3-81.1a575.6 575.6 0 0 0 37.4 42.6 16.8 16.8 0 0 0 23.8 0c2.2-2.2 26.3-26.7 52.6-62.3h147z"/></g><!-- Created by Ayub Irawan from Noun Project --></svg>