<svg viewBox="103.5 35 493 493" xmlns="http://www.w3.org/2000/svg"><path fill="currentColor" d="M349.8 44.8c-61.4 0-111.8 48-111.8 110.6 0 15.2 3.7 34.6 8.8 48 30.8 64.4 62 128.9 93 193.3 1.8 3.9 6 6.5 10.2 6.5s8.4-2.6 10.1-6.5c30.7-64.6 62.7-128.7 93.2-193.3 5-13.5 8.7-32.9 8.7-48 0-62.6-50.7-110.6-112.2-110.6zm0 22.4c50 0 89.8 37.5 89.8 88.2 0 10.8-3.8 30-7.4 39.5-27.1 57.1-54.8 114.2-82.2 171.2-26.5-57.4-56.4-113.5-82.3-171.2-3.5-9.5-7.3-28.7-7.3-39.5a87.2 87.2 0 0 1 89.4-88.2zm.2 22.4c-37 0-67.2 30.2-67.2 67.2S313 224 350 224s67.2-30.2 67.2-67.2S387 89.6 350 89.6zm0 22.4c24.9 0 44.8 20 44.8 44.8s-20 44.8-44.8 44.8-44.8-20-44.8-44.8 20-44.8 44.8-44.8zM148.4 268.8c-6.3 0-9 3.5-11 9.4l-33.6 224c-1 6.4 4.6 13 11 13h470.4c6.4 0 12-6.6 11-13l-33.6-224c-.8-5.2-5.7-9.4-11-9.4H434.2l-10.9 22.4H542l6.6 44.8h-145c3-4.7-9.3 15.4-12 21l108.7 135.8H333l-69.6-87.2 48.6-41-10-20.7-52.6 44.4-77.7-97.1h105l-10.9-22.4H148.4zm7.2 38.1 148.7 185.9H127.8zm265.8 51.5H552l8.4 56h-94.3zm62.8 78.4h79.6l8.4 56H529l-44.8-56z"/><!-- Created by Numero Uno from Noun Project --></svg>