<svg viewBox="95 25 510 510" xmlns="http://www.w3.org/2000/svg"><path d="M604.2 39.8v481c0 7.8-6.1 14-14 14H358.4c-7.8 0-14-6.2-14-14s6.2-14 14-14h217.8v-453H123.8v216.7c0 7.8-6.2 14-14 14-7.9 0-14-6.2-14-14V39.8c0-7.9 6.1-14 14-14h481c7.3 0 13.4 6.1 13.4 14zm-304 304v176.4c0 7.9-6.2 14-14 14H109.8c-7.9 0-14-6.1-14-14V343.8c0-7.8 6.1-14 14-14h176.4c7.2 0 14 6.8 14 14zm-28 14H123.8v148.4h148.4zm215.6-195.4v79.5c0 7.9 6.1 14 14 14 7.8 0 14-6.1 14-14V128.2c0-7.8-6.2-14-14-14H388.6c-7.8 0-14 6.2-14 14 0 7.9 6.2 14 14 14h79L326.5 283.4a13.5 13.5 0 0 0 0 19.6c2.8 2.8 6.1 3.9 10 3.9 4 0 7.3-1.1 10.1-4z" fill="currentColor"/><!-- Created by Gregor Cresnar from Noun Project --></svg>