<svg xmlns="http://www.w3.org/2000/svg" viewBox="0 0 500 500"><path d="M250 0C111.93 0 0 111.93 0 250c0 138.08 111.93 250 250 250s250-111.92 250-250C500 111.93 388.07 0 250 0zm0 458.94c-115.2 0-208.94-93.73-208.94-208.94 0-115.2 93.73-208.94 208.94-208.94 115.2 0 208.94 93.73 208.94 208.94S365.2 458.94 250 458.94z"/><path d="m404.46 201.17-.1-.57a13.1 13.1 0 0 0-.24-1.12l-.2-.64c-.11-.33-.22-.65-.35-.97-.09-.22-.2-.44-.3-.65-.13-.3-.28-.6-.45-.88l-.37-.62a12.32 12.32 0 0 0-1.68-2.1l-.53-.52-.75-.63-.6-.45-.23-.17-141.3-94.2a13.28 13.28 0 0 0-14.73 0l-141.3 94.2-.21.17a12.54 12.54 0 0 0-1.35 1.08c-.19.17-.36.35-.54.53a11.62 11.62 0 0 0-1.67 2.1 11.78 11.78 0 0 0-1.47 3.1c-.07.22-.15.43-.2.65-.1.37-.17.74-.24 1.11-.03.2-.08.39-.1.58a12.9 12.9 0 0 0-.13 1.73v94.2c0 .58.05 1.16.12 1.74l.11.57c.07.37.13.75.23 1.11l.2.65c.11.32.22.64.35.97.09.22.2.43.3.65.14.3.29.59.45.88a16.98 16.98 0 0 0 1.4 2c.2.24.42.48.65.7.18.19.35.37.54.53a12.12 12.12 0 0 0 1.35 1.09l.22.16 141.3 94.2a13.29 13.29 0 0 0 14.73 0l141.3-94.2.22-.16.6-.46.75-.63c.18-.16.35-.34.53-.52a12.79 12.79 0 0 0 1.68-2.1l.37-.61c.17-.3.32-.59.46-.89l.3-.64.34-.97.2-.65c.1-.36.17-.74.23-1.11l.11-.57c.08-.58.12-1.15.12-1.74v-94.2c0-.58-.04-1.16-.12-1.73zM263.3 133.53l104.08 69.39-46.49 31.1-57.6-38.52v-61.97zm-26.58 0v61.97l-57.59 38.52-46.5-31.1 104.1-69.39zM122 227.77 155.23 250l-33.24 22.23v-44.46zm114.73 138.7-104.1-69.39 46.5-31.1 57.6 38.53v61.96zM250 281.43 203.01 250l47-31.43L296.98 250 250 281.43zm13.29 85.04v-61.96l57.6-38.52 46.48 31.1-104.08 69.38zM378 272.23 344.78 250 378 227.77v44.46z"/></svg>
