<svg viewBox="0 0 1170 1024" xmlns="http://www.w3.org/2000/svg"><path d="M1028.57 441.14q63.43 26.29 102.57 83.15t39.15 126.57q0 93.71-67.43 160.28T940 877.71q-2.29 0-6.57-.28t-6-.29H232q-97.14-5.71-164.57-71.71T0 645.14q0-62.85 31.43-116t84-84q-6.86-22.28-6.86-46.85 0-65.72 46.86-112T269.14 240q54.29 0 98.29 33.14 42.86-88 127.14-141.71T681.14 77.7q94.86 0 174.86 46t126.57 124.86 46.57 172q0 3.43-.28 10.29t-.29 10.28zm-761.14 152q0 69.72 48 110.29T434.29 744q78.28 0 137.14-56.57-9.14-11.43-27.14-32.29t-24.86-28.85q-38.29 37.14-82.29 37.14-31.43 0-53.43-19.14t-22-50q0-30.29 22-49.72T436 525.14q25.14 0 48.29 12T526 568.57t37.14 42.86 39.43 46.86 44 42.85T702 732.57t69.43 12q69.14 0 116.86-40.86T936 594.86q0-69.15-48-109.72t-118.29-40.57Q688 444.57 632 500l53.14 61.71q37.72-36.57 81.15-36.57 29.71 0 52.57 18.86t22.85 48q0 32.57-21.14 52.29T766.86 664q-24.57 0-47.15-12t-41.14-31.43-37.43-42.86-39.71-46.85T557.14 488 502 456.57t-67.71-12q-69.72 0-118.29 40.29t-48.57 108.28z"/></svg>
