<svg viewBox="0 0 700 700" xmlns="http://www.w3.org/2000/svg"><path fill="currentColor" d="M113.2 198.6v305l-62 15.5A41.2 41.2 0 0 1 0 479v-256a41.2 41.2 0 0 1 51.2-40zm473.6 305v-305l62-15.5a41.2 41.2 0 0 1 51.2 40v256a41.2 41.2 0 0 1-51.2 40zm-349.3 43h-42c-18 0-33.3-11.6-38.9-27.8l91-97 56 56zm57 0 178.7-186 72.4 78.3v66.6a41.2 41.2 0 0 1-41.2 41.2zm251-168.4-56.8-61.6c-8-8.8-21.8-8.9-30-.3L332 448.2l-70.5-70.5c-8.2-8.2-21.6-8-29.6.5L154.4 461V196.7a41.2 41.2 0 0 1 41.2-41.2h308.8a41.2 41.2 0 0 1 41.2 41.2zm-298.4-58a61.8 61.8 0 1 0 0-123.5 61.8 61.8 0 0 0 0 123.5zm0-41.2a20.6 20.6 0 1 1 0-41.1 20.6 20.6 0 0 1 0 41.1z"/><!-- Created by Andrejs Kirm from the Noun Project --></svg>
